<svg width="200" height="200" viewBox="0 0 200 200" fill="none" xmlns="http://www.w3.org/2000/svg">
<path d="M165 0H35C15.67 0 0 15.67 0 35V165C0 184.33 15.67 200 35 200H165C184.33 200 200 184.33 200 165V35C200 15.67 184.33 0 165 0Z" fill="#000058"/>
<path d="M84.1568 116.901H56.4575L49.3051 139.789C49.2184 140.483 48.785 140.83 48.0047 140.83H35.0003C34.1334 140.83 33.8299 140.396 34.09 139.529L59.1885 62.9327C59.7953 61.2855 60.1421 58.9013 60.2288 55.7803C60.2288 55.2601 60.4889 55 61.0091 55H79.2152C79.7354 55 80.0388 55.2167 80.1255 55.6502L108.215 139.659C108.475 140.439 108.258 140.83 107.565 140.83H92.9998C92.3929 140.83 91.9595 140.57 91.6994 140.049L84.1568 116.901ZM59.5786 104.547H81.1658C80.6457 102.726 79.562 99.1719 77.9147 93.8834C76.2675 88.5949 74.7503 83.6532 73.3632 79.0583C71.9761 74.4634 70.9357 70.8221 70.2422 68.1345H70.1121C69.1585 72.6428 65.6473 84.7803 59.5786 104.547Z" fill="#9999F9"/>
<path d="M151.175 111.96H127.377C127.464 117.508 129.024 121.886 132.059 125.094C135.093 128.302 139.644 129.906 145.713 129.906C151.262 129.906 156.203 128.952 160.538 127.045C161.058 126.698 161.318 126.871 161.318 127.565V137.058C161.318 137.665 161.058 138.185 160.538 138.619C155.597 140.873 149.528 142 142.332 142C131.668 142 123.823 138.966 118.794 132.897C113.852 126.741 111.382 119.069 111.382 109.879C111.382 100.342 113.983 92.3662 119.184 85.9507C124.386 79.5351 131.495 76.3274 140.511 76.3274C149.094 76.3274 155.466 78.9716 159.628 84.2601C163.876 89.5486 166 95.7474 166 102.857C166 106.411 165.827 108.925 165.48 110.399C165.393 111.006 165.046 111.353 164.439 111.439C162.185 111.786 157.764 111.96 151.175 111.96ZM127.377 101.946H144.543C148.271 101.946 150.395 101.859 150.915 101.686C151.002 101.339 151.045 100.732 151.045 99.8655C151.045 96.571 150.178 93.6233 148.444 91.0224C146.71 88.4215 143.893 87.1211 139.991 87.1211C136.177 87.1211 133.229 88.5082 131.148 91.2825C129.068 94.0568 127.811 97.6114 127.377 101.946Z" fill="#9999F9"/>
</svg>
