<svg width="200" height="200" viewBox="0 0 200 200" fill="none" xmlns="http://www.w3.org/2000/svg">
<path d="M35.4167 1.61203e-05H164.583C169.236 -0.00448106 173.843 0.932018 178.142 2.75592C182.441 4.57981 186.347 7.25531 189.636 10.6293C192.926 14.0032 195.535 18.0094 197.313 22.4186C199.091 26.8277 200.004 31.5533 200 36.3248V163.675C200.004 168.447 199.091 173.172 197.313 177.581C195.535 181.991 192.926 185.997 189.636 189.371C186.347 192.745 182.441 195.42 178.142 197.244C173.843 199.068 169.236 200.004 164.583 200H35.4167C30.7645 200.004 26.157 199.068 21.8581 197.244C17.5592 195.42 13.6532 192.745 10.3635 189.371C7.07392 185.997 4.46532 181.991 2.68702 177.581C0.908717 173.172 -0.00436903 168.447 1.57173e-05 163.675V36.3248C-0.00436903 31.5533 0.908717 26.8277 2.68702 22.4186C4.46532 18.0094 7.07392 14.0032 10.3635 10.6293C13.6532 7.25531 17.5592 4.57981 21.8581 2.75592C26.157 0.932018 30.7645 -0.00448106 35.4167 1.61203e-05V1.61203e-05Z" fill="#000B1D"/>
<path d="M82.9886 106.907C83.5699 96.5365 88.6485 87.3996 96.3101 80.9226C103.824 74.5608 113.937 70.6725 124.972 70.6725C135.995 70.6725 146.108 74.5608 153.627 80.9226C161.284 87.3996 166.362 96.5366 166.949 106.896C167.53 117.552 163.247 127.452 155.733 134.79C148.072 142.254 137.174 146.937 124.972 146.937C112.769 146.937 101.849 142.254 94.1932 134.79C86.6741 127.452 82.4017 117.552 82.9886 106.907V106.907Z" fill="white"/>
<path d="M103.398 107.845C103.697 102.523 106.302 97.8352 110.234 94.5118C114.089 91.2476 119.278 89.2524 124.94 89.2524C130.596 89.2524 135.785 91.2476 139.643 94.5118C143.572 97.8352 146.178 102.523 146.479 107.839C146.777 113.307 144.579 118.386 140.724 122.151C136.793 125.981 131.201 128.384 124.94 128.384C118.679 128.384 113.076 125.981 109.147 122.151C105.289 118.386 103.097 113.307 103.398 107.845V107.845Z" fill="#265787"/>
<path d="M69.0948 118.622C69.1314 120.705 69.7955 124.751 70.7917 127.912C72.8854 134.601 76.4367 140.789 81.3782 146.242C86.4492 151.848 92.6936 156.35 99.9061 159.547C107.487 162.904 115.701 164.615 124.234 164.601C132.752 164.59 140.966 162.845 148.547 159.462C155.76 156.235 161.998 151.713 167.061 146.104C172 140.628 175.545 134.429 177.645 127.74C178.7 124.36 179.367 120.93 179.634 117.488C179.896 114.098 179.786 110.701 179.305 107.307C178.365 100.694 176.077 94.4893 172.554 88.8331C169.332 83.6356 165.178 79.0853 160.24 75.2554L160.251 75.247L110.411 36.9789C110.366 36.9451 110.329 36.9086 110.282 36.8777C107.012 34.3675 101.513 34.376 97.9165 36.8917C94.2808 39.4356 93.8643 43.6426 97.1004 46.2962L97.0864 46.3103L117.874 63.2142L54.5151 63.2817H54.4307C49.1937 63.2873 44.1594 66.7233 43.1632 71.0653C42.1389 75.489 45.6958 79.1584 51.1411 79.1781L51.1326 79.1979L83.2468 79.136L25.9411 123.122C25.8679 123.176 25.7891 123.232 25.7216 123.285C20.3157 127.425 18.5682 134.308 21.9733 138.664C25.4289 143.093 32.7765 143.102 38.2386 138.689L69.5141 113.093C69.5141 113.093 69.0582 116.548 69.0948 118.622V118.622ZM149.462 130.194C143.018 136.759 133.996 140.482 124.234 140.502C114.458 140.518 105.436 136.829 98.9915 130.275C95.8425 127.081 93.5294 123.406 92.1026 119.492C90.7041 115.645 90.1609 111.562 90.5211 107.442C90.8617 103.415 92.0605 99.5743 93.974 96.0989C95.8538 92.6827 98.4428 89.5957 101.64 86.9843C107.904 81.8797 115.879 79.1162 124.22 79.105C132.569 79.0937 140.538 81.8318 146.808 86.9196C149.999 89.5197 152.585 92.5955 154.465 96.0061C156.387 99.4786 157.578 103.306 157.932 107.344C158.287 111.458 157.744 115.536 156.345 119.385C154.916 123.311 152.611 126.986 149.462 130.194V130.194Z" fill="#EA7600"/>
</svg>
