<svg width="200" height="200" viewBox="0 0 200 200" fill="none" xmlns="http://www.w3.org/2000/svg">
<path d="M165 0H35C15.67 0 0 15.67 0 35V165C0 184.33 15.67 200 35 200H165C184.33 200 200 184.33 200 165V35C200 15.67 184.33 0 165 0Z" fill="#430C1F"/>
<path d="M73.8616 60.9418V144.657C73.8616 145.438 73.5121 145.828 72.8129 145.828H59.0487C58.3496 145.828 58 145.438 58 144.657V60.9418C58 60.2475 58.3496 59.9003 59.0487 59.9003H72.944C73.5558 59.9003 73.8616 60.2475 73.8616 60.9418Z" fill="#EC4E68"/>
<path d="M116.55 147C106.762 147 98.9407 144.266 93.0855 138.798C87.2302 133.33 84.3026 125.258 84.3026 114.582C84.3026 104.861 87.4487 96.8753 93.7409 90.626C100.033 84.3767 108.423 81.2521 118.91 81.2521C121.532 81.2521 123.804 81.4691 125.726 81.9031V53.7812C125.726 53.2604 125.989 53 126.513 53H140.933C141.37 53 141.588 53.2604 141.588 53.7812V131.767C141.588 135.066 141.719 137.93 141.981 140.36C142.069 140.881 141.85 141.271 141.326 141.532C133.723 145.177 125.464 147 116.55 147ZM125.726 134.111V93.8809C123.979 92.9261 121.619 92.4488 118.648 92.4488C113.317 92.4488 108.991 94.3149 105.67 98.0471C102.349 101.779 100.689 107.074 100.689 113.931C100.689 121.222 102.305 126.603 105.539 130.075C108.86 133.547 113.055 135.283 118.123 135.283C121.269 135.283 123.804 134.892 125.726 134.111Z" fill="#EC4E68"/>
</svg>
